{
    "asset" : {
        "generator" : "Khronos glTF Blender I/O v0.9.36",
        "version" : "2.0"
    },
    "scene" : 0,
    "scenes" : [
        {
            "name" : "Scene",
            "nodes" : [
                0
            ]
        }
    ],
    "nodes" : [
        {
            "mesh" : 0,
            "name" : "Barras_Laterais",
            "rotation" : [
                0.7071067094802856,
                0,
                -0.7071068286895752,
                -8.964987330273289e-08
            ],
            "scale" : [
                0.06499999016523361,
                0.9500001072883606,
                0.02608695812523365
            ],
            "translation" : [
                2.375,
                0.9500005841255188,
                -1.149999976158142
            ]
        }
    ],
    "materials" : [
        {
            "doubleSided" : true,
            "name" : "Material.001",
            "pbrMetallicRoughness" : {
                "baseColorTexture" : {
                    "index" : 0,
                    "texCoord" : 0
                },
                "metallicFactor" : 0,
                "roughnessFactor" : 0.5
            }
        }
    ],
    "meshes" : [
        {
            "name" : "Cube.010",
            "primitives" : [
                {
                    "attributes" : {
                        "POSITION" : 0,
                        "NORMAL" : 1,
                        "TEXCOORD_0" : 2,
                        "TEXCOORD_1" : 3
                    },
                    "indices" : 4,
                    "material" : 0
                }
            ]
        }
    ],
    "textures" : [
        {
            "source" : 0
        }
    ],
    "images" : [
        {
            "bufferView" : 5,
            "mimeType" : "image/png",
            "name" : "Image_0"
        }
    ],
    "accessors" : [
        {
            "bufferView" : 0,
            "componentType" : 5126,
            "count" : 1430,
            "max" : [
                1.000005841255188,
                1.0032625198364258,
                91
            ],
            "min" : [
                -18.999998092651367,
                -1,
                -1
            ],
            "type" : "VEC3"
        },
        {
            "bufferView" : 1,
            "componentType" : 5126,
            "count" : 1430,
            "type" : "VEC3"
        },
        {
            "bufferView" : 2,
            "componentType" : 5126,
            "count" : 1430,
            "type" : "VEC2"
        },
        {
            "bufferView" : 3,
            "componentType" : 5126,
            "count" : 1430,
            "type" : "VEC2"
        },
        {
            "bufferView" : 4,
            "componentType" : 5123,
            "count" : 1656,
            "type" : "SCALAR"
        }
    ],
    "bufferViews" : [
        {
            "buffer" : 0,
            "byteLength" : 17160,
            "byteOffset" : 0
        },
        {
            "buffer" : 0,
            "byteLength" : 17160,
            "byteOffset" : 17160
        },
        {
            "buffer" : 0,
            "byteLength" : 11440,
            "byteOffset" : 34320
        },
        {
            "buffer" : 0,
            "byteLength" : 11440,
            "byteOffset" : 45760
        },
        {
            "buffer" : 0,
            "byteLength" : 3312,
            "byteOffset" : 57200
        },
        {
            "buffer" : 0,
            "byteLength" : 145670,
            "byteOffset" : 60512
        }
    ],
    "buffers" : [
        {
            "byteLength" : 206184,
            "uri" : "data:application/octet-stream;base64,"
        }
    ]
}
