{
    "asset" : {
        "generator" : "Khronos glTF Blender I/O v0.9.36",
        "version" : "2.0"
    },
    "scene" : 0,
    "scenes" : [
        {
            "name" : "Scene",
            "nodes" : [
                0
            ]
        }
    ],
    "nodes" : [
        {
            "mesh" : 0,
            "name" : "Barras_Laterais",
            "rotation" : [
                0.5,
                0.5000000596046448,
                -0.5,
                0.4999999403953552
            ],
            "scale" : [
                0.06499998271465302,
                0.02608695812523365,
                0.949999988079071
            ],
            "translation" : [
                2.375,
                0.9500002861022949,
                -1.149999976158142
            ]
        }
    ],
    "materials" : [
        {
            "doubleSided" : true,
            "name" : "Material",
            "pbrMetallicRoughness" : {
                "baseColorTexture" : {
                    "index" : 0,
                    "texCoord" : 0
                },
                "metallicFactor" : 0,
                "roughnessFactor" : 0.5
            }
        }
    ],
    "meshes" : [
        {
            "name" : "Cube.010",
            "primitives" : [
                {
                    "attributes" : {
                        "POSITION" : 0,
                        "NORMAL" : 1,
                        "TEXCOORD_0" : 2,
                        "TEXCOORD_1" : 3
                    },
                    "indices" : 4,
                    "material" : 0
                }
            ]
        }
    ],
    "textures" : [
        {
            "source" : 0
        }
    ],
    "images" : [
        {
            "bufferView" : 5,
            "mimeType" : "image/png",
            "name" : "bake1"
        }
    ],
    "accessors" : [
        {
            "bufferView" : 0,
            "componentType" : 5126,
            "count" : 1248,
            "max" : [
                1.000005841255188,
                1,
                1.0032625198364258
            ],
            "min" : [
                -19.00000762939453,
                -91,
                -1
            ],
            "type" : "VEC3"
        },
        {
            "bufferView" : 1,
            "componentType" : 5126,
            "count" : 1248,
            "type" : "VEC3"
        },
        {
            "bufferView" : 2,
            "componentType" : 5126,
            "count" : 1248,
            "type" : "VEC2"
        },
        {
            "bufferView" : 3,
            "componentType" : 5126,
            "count" : 1248,
            "type" : "VEC2"
        },
        {
            "bufferView" : 4,
            "componentType" : 5123,
            "count" : 1800,
            "type" : "SCALAR"
        }
    ],
    "bufferViews" : [
        {
            "buffer" : 0,
            "byteLength" : 14976,
            "byteOffset" : 0
        },
        {
            "buffer" : 0,
            "byteLength" : 14976,
            "byteOffset" : 14976
        },
        {
            "buffer" : 0,
            "byteLength" : 9984,
            "byteOffset" : 29952
        },
        {
            "buffer" : 0,
            "byteLength" : 9984,
            "byteOffset" : 39936
        },
        {
            "buffer" : 0,
            "byteLength" : 3600,
            "byteOffset" : 49920
        },
        {
            "buffer" : 0,
            "byteLength" : 69894,
            "byteOffset" : 53520
        }
    ],
    "buffers" : [
        {
            "byteLength" : 123416,
            "uri" : "data:application/octet-stream;base64,"
        }
    ]
}
